HIERARCHY
ROOT Hips
{
 OFFSET 0.000000 0.000000 0.000000
 CHANNELS 6 Xposition Yposition Zposition Yrotation Xrotation Zrotation
 JOINT Chest
 {
  OFFSET 0.000000 9.588913 -0.003946
  CHANNELS 3 Yrotation Xrotation Zrotation
  JOINT Chest2
  {
   OFFSET 0.000000 9.541882 0.008053
   CHANNELS 3 Yrotation Xrotation Zrotation
   JOINT Chest3
   {
    OFFSET 0.000000 9.501360 0.000000
    CHANNELS 3 Yrotation Xrotation Zrotation
    JOINT Chest4
    {
     OFFSET 0.000000 9.491660 0.000000
     CHANNELS 3 Yrotation Xrotation Zrotation
     JOINT Neck
     {
      OFFSET 0.000000 14.331917 0.000000
      CHANNELS 3 Yrotation Xrotation Zrotation
      JOINT Head
      {
       OFFSET 0.000000 8.884799 0.017034
       CHANNELS 3 Yrotation Xrotation Zrotation
       End Site
       {
        OFFSET 0.000000 16.896195 0.008993
       }
      }
     }
     JOINT RightCollar
     {
      OFFSET -2.923010 9.499495 0.000000
      CHANNELS 3 Yrotation Xrotation Zrotation
      JOINT RightShoulder
      {
       OFFSET -13.795216 0.000000 0.000000
       CHANNELS 3 Yrotation Xrotation Zrotation
       JOINT RightElbow
       {
        OFFSET -30.272209 0.000000 0.000000
        CHANNELS 3 Yrotation Xrotation Zrotation
        JOINT RightWrist
        {
         OFFSET -24.478199 0.000000 0.000000
         CHANNELS 3 Yrotation Xrotation Zrotation
         End Site
         {
          OFFSET -18.090752 0.000000 0.000000
         }
        }
       }
      }
     }
     JOINT LeftCollar
     {
      OFFSET 2.923010 9.499495 0.000000
      CHANNELS 3 Yrotation Xrotation Zrotation
      JOINT LeftShoulder
      {
       OFFSET 13.795216 0.000000 0.000000
       CHANNELS 3 Yrotation Xrotation Zrotation
       JOINT LeftElbow
       {
        OFFSET 30.272209 0.000000 0.000000
        CHANNELS 3 Yrotation Xrotation Zrotation
        JOINT LeftWrist
        {
         OFFSET 24.478199 0.000000 0.000000
         CHANNELS 3 Yrotation Xrotation Zrotation
         End Site
         {
          OFFSET 18.090752 0.000000 0.000000
         }
        }
       }
      }
     }
    }
   }
  }
 }
 JOINT RightHip
 {
  OFFSET -7.826875 0.019532 0.001973
  CHANNELS 3 Yrotation Xrotation Zrotation
  JOINT RightKnee
  {
   OFFSET 0.000000 -40.546152 -0.001885
   CHANNELS 3 Yrotation Xrotation Zrotation
   JOINT RightAnkle
   {
    OFFSET 0.000000 -39.417092 -0.003189
    CHANNELS 3 Yrotation Xrotation Zrotation
    JOINT RightToe
    {
     OFFSET 0.000000 -7.579396 17.243563
     CHANNELS 3 Yrotation Xrotation Zrotation
     End Site
     {
      OFFSET 0.000000 -1.500329 6.694466
     }
    }
   }
  }
 }
 JOINT LeftHip
 {
  OFFSET 7.826875 0.019532 0.001973
  CHANNELS 3 Yrotation Xrotation Zrotation
  JOINT LeftKnee
  {
   OFFSET 0.000000 -40.546152 -0.001885
   CHANNELS 3 Yrotation Xrotation Zrotation
   JOINT LeftAnkle
   {
    OFFSET 0.000000 -39.417092 -0.003189
    CHANNELS 3 Yrotation Xrotation Zrotation
    JOINT LeftToe
    {
     OFFSET 0.000000 -7.579396 17.243563
     CHANNELS 3 Yrotation Xrotation Zrotation
     End Site
     {
      OFFSET 0.000000 -1.500329 6.694466
     }
    }
   }
  }
 }
}
MOTION
Frames: 9
Frame Time: 0.008333
-114.409265 87.793800 113.104477 -98.635022 -8.900495 0.102616 3.255275 5.378719 0.981767 1.595556 2.732340 0.655028 1.999894 3.412477 0.830906 1.595558 2.732340 0.655027 -13.484761 4.404703 -4.695656 -15.128869 -21.471424 -1.988089 -9.281713 2.419361 -2.045070 2.372483 -2.869531 88.813529 2.014739 -11.185291 -0.378733 -0.118173 -10.292504 2.275503 -13.193175 -1.499911 -2.661644 3.458975 -2.150668 -85.036088 0.780900 1.863691 0.447311 -0.680316 3.351623 -2.097411 -6.962787 0.774165 -6.754111 15.795151 10.201061 -0.014426 -4.421139 -5.831057 4.323413 -0.068077 1.625259 -0.454575 27.299438 7.373048 9.747884 22.181792 16.237080 10.636349 28.250104 -3.331505 -12.816533 0.901003 -1.360449 -1.061734
-114.495266 87.800561 112.824115 -99.042908 -9.028178 -0.011743 3.309086 5.420200 1.090228 1.604753 2.739513 0.677231 2.011574 3.421327 0.858769 1.604755 2.739512 0.677230 -13.382115 4.305844 -4.760636 -14.990036 -21.589984 -2.092967 -9.284395 2.374903 -2.058585 2.496119 -2.929139 88.890294 1.850974 -11.226197 -0.444685 -0.130111 -10.294058 2.250295 -13.175974 -1.511588 -2.673053 3.534850 -2.079180 -84.988354 0.732277 1.865008 0.419176 -0.702971 3.333250 -2.079863 -6.588292 0.959536 -6.471868 15.866762 10.242125 0.109818 -4.464141 -5.960180 4.170743 -0.070667 1.607644 -0.439528 26.886537 6.697174 9.997567 22.622835 17.670039 11.629633 28.310217 -3.042962 -13.214508 1.010726 -1.453476 -1.249901
-114.564410 87.813922 112.545472 -99.454886 -9.134558 -0.138720 3.348870 5.436115 1.202529 1.617894 2.748832 0.699122 2.028191 3.432851 0.886280 1.617897 2.748830 0.699121 -13.282283 4.211151 -4.823948 -14.854868 -21.703562 -2.195268 -9.286079 2.329333 -2.072131 2.620587 -2.994825 88.959808 1.696782 -11.237551 -0.500878 -0.144843 -10.287996 2.224819 -13.154508 -1.521403 -2.684979 3.592734 -2.013367 -84.936838 0.696160 1.871956 0.391333 -0.746080 3.297270 -2.060325 -6.191579 1.110363 -6.171295 15.925319 10.281884 0.237198 -4.503181 -6.044713 4.019720 -0.071007 1.566040 -0.429433 26.389835 5.940081 10.250158 23.101740 19.189461 12.664952 28.410509 -2.708442 -13.488704 1.071028 -1.533136 -1.511929
-114.618518 87.834171 112.271205 -99.870657 -9.228276 -0.272386 3.380787 5.433646 1.312910 1.636426 2.759385 0.721131 2.051553 3.445905 0.913987 1.636429 2.759382 0.721130 -13.190440 4.124477 -4.883283 -14.730248 -21.807546 -2.290840 -9.298377 2.286361 -2.085115 2.748419 -3.066721 89.018264 1.553592 -11.212844 -0.543100 -0.163876 -10.277895 2.198389 -13.147770 -1.524591 -2.694280 3.641291 -1.955315 -84.886520 0.679373 1.873153 0.359875 -0.846146 3.212311 -2.027517 -5.794625 1.235758 -5.861789 15.967940 10.314869 0.362404 -4.518004 -6.083306 3.870112 -0.069132 1.500493 -0.421446 25.865131 5.116080 10.509878 23.572722 20.770931 13.723577 28.537288 -2.338740 -13.597846 1.088025 -1.593862 -1.850850
-114.658748 87.861258 111.997741 -100.292063 -9.313019 -0.441622 3.410000 5.414705 1.448586 1.659703 2.770325 0.744765 2.080861 3.459422 0.943764 1.659706 2.770321 0.744764 -13.104606 4.048240 -4.937519 -14.613519 -21.899022 -2.378840 -9.320719 2.244266 -2.103942 2.885381 -3.138937 89.067546 1.422681 -11.158465 -0.572218 -0.187126 -10.265527 2.177548 -13.155646 -1.520228 -2.700105 3.683117 -1.904300 -84.843649 0.683613 1.845355 0.321478 -1.057041 3.028898 -1.967142 -5.409824 1.347016 -5.511843 15.983119 10.326687 0.478543 -4.490668 -6.043156 3.716871 -0.065374 1.387694 -0.413367 25.365233 4.238268 10.808216 23.983535 22.372001 14.773893 28.672915 -1.974575 -13.493780 1.064696 -1.606454 -2.270573
-114.694844 87.895453 111.740060 -100.741481 -9.417681 -0.551257 3.441982 5.413729 1.518836 1.684000 2.781550 0.770666 2.111466 3.473280 0.976385 1.684003 2.781546 0.770665 -13.013152 3.982520 -4.988742 -14.488836 -21.977844 -2.464863 -9.329289 2.199540 -2.136291 3.037543 -3.205406 89.110350 1.310247 -11.084155 -0.589918 -0.215743 -10.252054 2.166818 -13.155955 -1.509966 -2.706200 3.718213 -1.856453 -84.813541 0.709551 1.733468 0.260669 -1.431022 2.675288 -1.859508 -5.027730 1.462506 -5.223842 15.978622 10.336402 0.581796 -4.426153 -5.994060 3.569199 -0.058466 1.278037 -0.401469 24.901620 3.404236 11.066930 24.327916 23.956934 15.784185 28.783447 -1.613759 -13.150804 1.035399 -1.597470 -2.756414
-114.730602 87.936339 111.497445 -101.218398 -9.548297 -0.605989 3.478423 5.435908 1.532134 1.708157 2.794284 0.797783 2.141910 3.489017 1.010536 1.708161 2.794280 0.797782 -12.912887 3.924805 -5.039068 -14.351820 -22.047002 -2.552286 -9.320228 2.149339 -2.179493 3.207272 -3.263898 89.143208 1.221844 -10.994437 -0.594275 -0.247893 -10.235422 2.164394 -13.144652 -1.498296 -2.716180 3.749921 -1.805906 -84.795743 0.744929 1.457483 0.147126 -1.979241 2.108050 -1.667469 -4.657248 1.590966 -4.991991 15.967744 10.350569 0.670590 -4.329614 -5.958259 3.424161 -0.049161 1.186088 -0.383147 24.420490 2.642613 11.279313 24.645874 25.511760 16.732462 28.875098 -1.307136 -12.554730 1.010282 -1.540793 -3.290978
-114.762502 87.982658 111.260821 -101.698251 -9.677377 -0.670638 3.507359 5.446900 1.552438 1.734946 2.811129 0.824359 2.175654 3.509883 1.044052 1.734951 2.811125 0.824357 -12.811117 3.869877 -5.089633 -14.212507 -22.112784 -2.640484 -9.312279 2.089635 -2.224022 3.393293 -3.313385 89.159348 1.157138 -10.903237 -0.580169 -0.279193 -10.208350 2.168587 -13.135441 -1.493057 -2.729228 3.783305 -1.748015 -84.789270 0.762796 0.987737 -0.027952 -2.665182 1.369112 -1.365296 -4.320634 1.720440 -4.748853 15.952188 10.339528 0.742254 -4.198137 -5.851973 3.274565 -0.036895 1.049967 -0.358228 23.843450 1.914006 11.487059 24.976430 27.046286 17.603276 28.958370 -1.088188 -11.673205 0.941903 -1.436590 -3.883636
-114.798500 88.034548 111.034387 -102.197225 -9.832508 -0.711325 3.542569 5.471828 1.555538 1.766230 2.834717 0.848999 2.215025 3.539172 1.075219 1.766236 2.834711 0.848997 -12.711077 3.811424 -5.142186 -14.075538 -22.182789 -2.730674 -9.312494 2.016343 -2.261792 3.590797 -3.354589 89.150601 1.113504 -10.819881 -0.543835 -0.309590 -10.175799 2.180509 -13.134288 -1.500946 -2.744444 3.829905 -1.683300 -84.799880 0.740835 0.384650 -0.240458 -3.432092 0.568209 -0.959465 -3.995228 1.875048 -4.528521 15.931068 10.329039 0.794096 -4.037643 -5.763251 3.129619 -0.024986 0.934264 -0.329673 23.174579 1.256962 11.685954 25.320922 28.568910 18.379602 28.983401 -0.958586 -10.514418 0.869417 -1.311489 -4.507258
